<svg xmlns="http://www.w3.org/2000/svg" width="18.353" height="22" viewBox="0 0 18.353 22">
  <g id="Layer_3" transform="translate(0.5 0.5)">
    <path id="Path_1" data-name="Path 1" d="M22.339,20.37l-1.777-1.951a1.171,1.171,0,0,1-.279-.743V13.649a5.78,5.78,0,0,0-4.6-5.42V6.649A1.66,1.66,0,0,0,13.942,5.1,1.681,1.681,0,0,0,12.2,6.649V8.2a5.764,5.764,0,0,0-4.6,5.451v4.027a1.171,1.171,0,0,1-.279.743L5.544,20.37a.916.916,0,0,0-.244.588v2.447H22.653V20.958A1.651,1.651,0,0,0,22.339,20.37ZM13.21,6.649a.7.7,0,0,1,1.394,0V8.042a5.515,5.515,0,0,0-1.429,0V6.649Zm8.328,15.8H6.276V20.958l1.777-1.951a1.915,1.915,0,0,0,.523-1.332V13.649A5.061,5.061,0,0,1,13.907,8.91c2.962,0,5.331,2.106,5.331,4.739v4.027a1.915,1.915,0,0,0,.523,1.332l1.777,1.951Z" transform="translate(-5.3 -5.1)" fill="#121314" stroke="#121314" stroke-width="1"/>
    <path id="Path_2" data-name="Path 2" d="M24.657,66.311A1.708,1.708,0,0,1,22.845,64.7H21.8a2.725,2.725,0,0,0,2.857,2.54,2.725,2.725,0,0,0,2.857-2.54H26.469A1.708,1.708,0,0,1,24.657,66.311Z" transform="translate(-16.051 -46.24)" fill="#121314" stroke="#121314" stroke-width="1"/>
  </g>
</svg>
